#Comment line ignore any data following # character 
#Hierarchical Translation and Rotation (.htr) file 
[Header]	
#Header keywords are followed by a single value 
FileType HTR		#Single word string
DataType HTRS		#Translation followed by rotation and scale data
FileVersion 1		#integer
NumSegments 84		#integer
NumFrames 2		#integer
DataFrameRate 30		#integer, data frame rate in this file
EulerRotationOrder ZYX
CalibrationUnits mm
RotationUnits Degrees
GlobalAxisofGravity Y
BoneLengthAxis Y
ScaleFactor 1.00
[SegmentNames&Hierarchy]
#CHILD	PARENT
MASTER GLOBAL
root MASTER
chest root
L_mid_tent01 root
R_mid_tent01 root
spine01 root
Bip01_Neck chest
L_humerus chest
R_humerus chest
weapon_bone chest
Bip01_Head Bip01_Neck
eye_left_bone Bip01_Head
eye_right_bone Bip01_Head
L_forearm L_humerus
L_front_hand L_forearm
L_weapon_bone L_forearm
L_front_hand01_01 L_front_hand
L_front_hand02_01 L_front_hand
L_front_hand03_01 L_front_hand
L_front_hand01_02 L_front_hand01_01
L_front_hand02_02 L_front_hand02_01
L_front_hand03_02 L_front_hand03_01
R_forearm R_humerus
R_front_hand R_forearm
R_weapon_bone R_forearm
R_front_hand01_01 R_front_hand
R_front_hand02_01 R_front_hand
R_front_hand03_01 R_front_hand
R_front_hand01_02 R_front_hand01_01
R_front_hand02_02 R_front_hand02_01
R_front_hand03_02 R_front_hand03_01
null_rope01_connect L_mid_tent01
Rope1_Seg01 null_rope01_connect
Rope1_Seg02 Rope1_Seg01
Rope1_Seg03 Rope1_Seg02
Rope1_Seg04 Rope1_Seg03
Rope1_Seg05 Rope1_Seg04
Rope1_Seg06 Rope1_Seg05
Rope1_Seg07 Rope1_Seg06
Rope1_Seg09 Rope1_Seg07
L_mid_hand01 Rope1_Seg09
L_mid_hand02 Rope1_Seg09
L_mid_hand03 Rope1_Seg09
null_rope02_connect R_mid_tent01
Rope2_Seg01 null_rope02_connect
Rope2_Seg02 Rope2_Seg01
Rope2_Seg03 Rope2_Seg02
Rope2_Seg04 Rope2_Seg03
Rope2_Seg05 Rope2_Seg04
Rope2_Seg06 Rope2_Seg05
Rope2_Seg07 Rope2_Seg06
Rope2_Seg09 Rope2_Seg07
R_mid_hand01 Rope2_Seg09
R_mid_hand02 Rope2_Seg09
R_mid_hand03 Rope2_Seg09
spine02 spine01
spine03 spine02
pelvis spine03
null_rope03_connect pelvis
null_rope04_connect pelvis
Rope3_Seg01 null_rope03_connect
Rope3_Seg02 Rope3_Seg01
Rope3_Seg03 Rope3_Seg02
Rope3_Seg04 Rope3_Seg03
Rope3_Seg05 Rope3_Seg04
Rope3_Seg06 Rope3_Seg05
Rope3_Seg07 Rope3_Seg06
Rope3_Seg08 Rope3_Seg07
Rope3_Seg09 Rope3_Seg08
R_rear_hand01 Rope3_Seg09
R_rear_hand02 Rope3_Seg09
R_rear_hand03 Rope3_Seg09
Rope4_Seg01 null_rope04_connect
Rope4_Seg02 Rope4_Seg01
Rope4_Seg03 Rope4_Seg02
Rope4_Seg04 Rope4_Seg03
Rope4_Seg05 Rope4_Seg04
Rope4_Seg06 Rope4_Seg05
Rope4_Seg07 Rope4_Seg06
Rope4_Seg08 Rope4_Seg07
Rope4_Seg09 Rope4_Seg08
L_rear_hand01 Rope4_Seg09
L_rear_hand02 Rope4_Seg09
L_rear_hand03 Rope4_Seg09
[BasePosition]
#SegmentName Tx, Ty, Tz, Rx, Ry, Rz, BoneLength
MASTER 0.000000 0.000000 0.000000 -90.000000 0.000000 0.000000 10.000000 
root 0.000000 0.000000 0.000000 0.000000 0.000000 0.000000 10.000000 
chest 0.000000 0.000000 0.000000 0.000000 0.000000 0.000000 10.000000 
L_mid_tent01 0.000000 0.000000 0.000000 0.000000 0.000000 0.000000 10.000000 
R_mid_tent01 0.000000 0.000000 0.000000 0.000000 0.000000 0.000000 10.000000 
spine01 0.000000 0.000000 0.000000 0.000000 0.000000 0.000000 10.000000 
Bip01_Neck 0.000000 0.000000 0.000000 0.000000 0.000000 0.000000 10.000000 
L_humerus 0.000000 0.000000 0.000000 0.000000 0.000000 0.000000 10.000000 
R_humerus 0.000000 0.000000 0.000000 0.000000 0.000000 0.000000 10.000000 
weapon_bone 0.000000 0.000000 0.000000 0.000000 0.000000 0.000000 10.000000 
Bip01_Head 0.000000 0.000000 0.000000 0.000000 0.000000 0.000000 10.000000 
eye_left_bone 0.000000 0.000000 0.000000 0.000000 0.000000 0.000000 10.000000 
eye_right_bone 0.000000 0.000000 0.000000 0.000000 0.000000 0.000000 10.000000 
L_forearm 0.000000 0.000000 0.000000 0.000000 0.000000 0.000000 10.000000 
L_front_hand 0.000000 0.000000 0.000000 0.000000 0.000000 0.000000 10.000000 
L_weapon_bone 0.000000 0.000000 0.000000 0.000000 0.000000 0.000000 10.000000 
L_front_hand01_01 0.000000 0.000000 0.000000 0.000000 0.000000 0.000000 10.000000 
L_front_hand02_01 0.000000 0.000000 0.000000 0.000000 0.000000 0.000000 10.000000 
L_front_hand03_01 0.000000 0.000000 0.000000 0.000000 0.000000 0.000000 10.000000 
L_front_hand01_02 0.000000 0.000000 0.000000 0.000000 0.000000 0.000000 10.000000 
L_front_hand02_02 0.000000 0.000000 0.000000 0.000000 0.000000 0.000000 10.000000 
L_front_hand03_02 0.000000 0.000000 0.000000 0.000000 0.000000 0.000000 10.000000 
R_forearm 0.000000 0.000000 0.000000 0.000000 0.000000 0.000000 10.000000 
R_front_hand 0.000000 0.000000 0.000000 0.000000 0.000000 0.000000 10.000000 
R_weapon_bone 0.000000 0.000000 0.000000 0.000000 0.000000 0.000000 10.000000 
R_front_hand01_01 0.000000 0.000000 0.000000 0.000000 0.000000 0.000000 10.000000 
R_front_hand02_01 0.000000 0.000000 0.000000 0.000000 0.000000 0.000000 10.000000 
R_front_hand03_01 0.000000 0.000000 0.000000 0.000000 0.000000 0.000000 10.000000 
R_front_hand01_02 0.000000 0.000000 0.000000 0.000000 0.000000 0.000000 10.000000 
R_front_hand02_02 0.000000 0.000000 0.000000 0.000000 0.000000 0.000000 10.000000 
R_front_hand03_02 0.000000 0.000000 0.000000 0.000000 0.000000 0.000000 10.000000 
null_rope01_connect 0.000000 0.000000 0.000000 0.000000 0.000000 0.000000 10.000000 
Rope1_Seg01 0.000000 0.000000 0.000000 0.000000 0.000000 0.000000 10.000000 
Rope1_Seg02 0.000000 0.000000 0.000000 0.000000 0.000000 0.000000 10.000000 
Rope1_Seg03 0.000000 0.000000 0.000000 0.000000 0.000000 0.000000 10.000000 
Rope1_Seg04 0.000000 0.000000 0.000000 0.000000 0.000000 0.000000 10.000000 
Rope1_Seg05 0.000000 0.000000 0.000000 0.000000 0.000000 0.000000 10.000000 
Rope1_Seg06 0.000000 0.000000 0.000000 0.000000 0.000000 0.000000 10.000000 
Rope1_Seg07 0.000000 0.000000 0.000000 0.000000 0.000000 0.000000 10.000000 
Rope1_Seg09 0.000000 0.000000 0.000000 0.000000 0.000000 0.000000 10.000000 
L_mid_hand01 0.000000 0.000000 0.000000 0.000000 0.000000 0.000000 10.000000 
L_mid_hand02 0.000000 0.000000 0.000000 0.000000 0.000000 0.000000 10.000000 
L_mid_hand03 0.000000 0.000000 0.000000 0.000000 0.000000 0.000000 10.000000 
null_rope02_connect 0.000000 0.000000 0.000000 0.000000 0.000000 0.000000 10.000000 
Rope2_Seg01 0.000000 0.000000 0.000000 0.000000 0.000000 0.000000 10.000000 
Rope2_Seg02 0.000000 0.000000 0.000000 0.000000 0.000000 0.000000 10.000000 
Rope2_Seg03 0.000000 0.000000 0.000000 0.000000 0.000000 0.000000 10.000000 
Rope2_Seg04 0.000000 0.000000 0.000000 0.000000 0.000000 0.000000 10.000000 
Rope2_Seg05 0.000000 0.000000 0.000000 0.000000 0.000000 0.000000 10.000000 
Rope2_Seg06 0.000000 0.000000 0.000000 0.000000 0.000000 0.000000 10.000000 
Rope2_Seg07 0.000000 0.000000 0.000000 0.000000 0.000000 0.000000 10.000000 
Rope2_Seg09 0.000000 0.000000 0.000000 0.000000 0.000000 0.000000 10.000000 
R_mid_hand01 0.000000 0.000000 0.000000 0.000000 0.000000 0.000000 10.000000 
R_mid_hand02 0.000000 0.000000 0.000000 0.000000 0.000000 0.000000 10.000000 
R_mid_hand03 0.000000 0.000000 0.000000 0.000000 0.000000 0.000000 10.000000 
spine02 0.000000 0.000000 0.000000 0.000000 0.000000 0.000000 10.000000 
spine03 0.000000 0.000000 0.000000 0.000000 0.000000 0.000000 10.000000 
pelvis 0.000000 0.000000 0.000000 0.000000 0.000000 0.000000 10.000000 
null_rope03_connect 0.000000 0.000000 0.000000 0.000000 0.000000 0.000000 10.000000 
null_rope04_connect 0.000000 0.000000 0.000000 0.000000 0.000000 0.000000 10.000000 
Rope3_Seg01 0.000000 0.000000 0.000000 0.000000 0.000000 0.000000 10.000000 
Rope3_Seg02 0.000000 0.000000 0.000000 0.000000 0.000000 0.000000 10.000000 
Rope3_Seg03 0.000000 0.000000 0.000000 0.000000 0.000000 0.000000 10.000000 
Rope3_Seg04 0.000000 0.000000 0.000000 0.000000 0.000000 0.000000 10.000000 
Rope3_Seg05 0.000000 0.000000 0.000000 0.000000 0.000000 0.000000 10.000000 
Rope3_Seg06 0.000000 0.000000 0.000000 0.000000 0.000000 0.000000 10.000000 
Rope3_Seg07 0.000000 0.000000 0.000000 0.000000 0.000000 0.000000 10.000000 
Rope3_Seg08 0.000000 0.000000 0.000000 0.000000 0.000000 0.000000 10.000000 
Rope3_Seg09 0.000000 0.000000 0.000000 0.000000 0.000000 0.000000 10.000000 
R_rear_hand01 0.000000 0.000000 0.000000 0.000000 0.000000 0.000000 10.000000 
R_rear_hand02 0.000000 0.000000 0.000000 0.000000 0.000000 0.000000 10.000000 
R_rear_hand03 0.000000 0.000000 0.000000 0.000000 0.000000 0.000000 10.000000 
Rope4_Seg01 0.000000 0.000000 0.000000 0.000000 0.000000 0.000000 10.000000 
Rope4_Seg02 0.000000 0.000000 0.000000 0.000000 0.000000 0.000000 10.000000 
Rope4_Seg03 0.000000 0.000000 0.000000 0.000000 0.000000 0.000000 10.000000 
Rope4_Seg04 0.000000 0.000000 0.000000 0.000000 0.000000 0.000000 10.000000 
Rope4_Seg05 0.000000 0.000000 0.000000 0.000000 0.000000 0.000000 10.000000 
Rope4_Seg06 0.000000 0.000000 0.000000 0.000000 0.000000 0.000000 10.000000 
Rope4_Seg07 0.000000 0.000000 0.000000 0.000000 0.000000 0.000000 10.000000 
Rope4_Seg08 0.000000 0.000000 0.000000 0.000000 0.000000 0.000000 10.000000 
Rope4_Seg09 0.000000 0.000000 0.000000 0.000000 0.000000 0.000000 10.000000 
L_rear_hand01 0.000000 0.000000 0.000000 0.000000 0.000000 0.000000 10.000000 
L_rear_hand02 0.000000 0.000000 0.000000 0.000000 0.000000 0.000000 10.000000 
L_rear_hand03 0.000000 0.000000 0.000000 0.000000 0.000000 0.000000 10.000000 
#Beginning of Data. Separated by tabs
#Fr	Tx	Ty	Tz	Rx	Ry	Rz	SF
[MASTER]
10 -0.000416 2312.619385 187.279633 0.001660 0.001660 0.001660 2320.190186
11 -0.000455 2493.031006 252.340851 0.001660 0.001660 0.001660 2505.769287
[root]
10 -33.055550 -35.128479 1490.362183 -82.918228 -3.402019 -93.102272 1491.142578
11 -34.992115 -39.854126 1495.280762 -83.231995 -3.656179 -93.079872 1496.220947
[chest]
10 -84.512650 -34.090519 0.000000 -2.075106 0.407487 174.015076 91.129311
11 -84.512650 -34.090519 0.000000 -2.053879 0.478347 175.016953 91.129311
[L_mid_tent01]
10 27.299126 22.179182 -249.918716 -8.618760 3.828162 16.060843 252.381714
11 27.299126 22.179188 -249.918716 -9.458045 4.432765 15.900497 252.381714
[R_mid_tent01]
10 23.228794 24.509907 226.238495 175.343872 -5.668980 24.012218 228.744751
11 23.228794 24.509907 226.238495 176.172409 -6.196565 24.099545 228.744751
[spine01]
10 -0.361383 -0.195265 0.000000 0.002059 0.001128 32.565418 0.410763
11 -0.361383 -0.195265 0.000000 0.002056 0.001132 32.328472 0.410763
[Bip01_Neck]
10 165.484543 71.581718 0.000119 176.643677 -1.657967 43.431911 180.302734
11 165.484543 71.581718 0.000119 176.643677 -1.657967 43.431911 180.302734
[L_humerus]
10 -13.983130 -135.272980 -120.471481 -7.050766 63.820339 82.792145 181.680161
11 -13.983130 -135.272980 -120.471481 -7.054080 63.782822 82.787376 181.680161
[R_humerus]
10 -13.983309 -135.273102 125.287651 25.631336 -64.604073 70.092361 184.909012
11 -13.983309 -135.273102 125.287651 25.617954 -64.561897 70.105568 184.909012
[weapon_bone]
10 235.964890 -300.705902 0.000000 0.000000 -89.951546 -128.212341 382.234833
11 235.964890 -300.705902 0.000000 0.000000 -89.951546 -128.212341 382.234833
[Bip01_Head]
10 213.673691 185.076294 20.027390 4.962490 2.797846 -43.898743 283.391541
11 213.662109 185.109558 19.599838 4.440152 -1.457900 -43.897720 283.374664
[eye_left_bone]
10 -24.626970 125.451866 -64.772606 0.000000 -90.000000 -99.840431 143.318359
11 -24.626970 125.451866 -64.772606 0.000000 -90.000000 -99.840431 143.318359
[eye_right_bone]
10 -24.626970 125.451866 64.327362 0.000000 -89.965736 80.156380 143.117676
11 -24.626970 125.451866 64.327362 0.000000 -89.980217 80.156380 143.117676
[L_forearm]
10 322.776093 0.000000 -0.000119 0.000430 -0.002307 -111.131783 322.776093
11 322.776093 0.000000 -0.000119 0.000431 -0.002307 -111.149773 322.776093
[L_front_hand]
10 241.149185 -0.042021 -3.300071 -178.667953 -1.835447 -27.422350 241.171753
11 241.149185 -0.042021 -3.300071 -178.667953 -1.835447 -27.422350 241.171753
[L_weapon_bone]
10 156.183838 0.000000 0.000000 0.000014 0.000007 0.000001 156.183838
11 156.183838 0.000000 0.000000 0.000014 0.000007 0.000001 156.183838
[L_front_hand01_01]
10 86.095154 20.947098 -0.655860 -0.291918 -0.522545 67.227623 88.609184
11 86.095154 20.947098 -0.655860 -0.282467 -0.528169 66.067474 88.609184
[L_front_hand02_01]
10 86.935165 -11.437475 24.513514 143.299133 -55.645813 -48.269917 91.046425
11 86.935165 -11.437475 24.513514 141.960785 -54.937954 -46.642345 91.046425
[L_front_hand03_01]
10 86.637497 -14.123976 -20.424902 -143.556335 53.862476 -50.232788 90.126129
11 86.637497 -14.123976 -20.424902 -142.303543 53.163303 -48.671032 90.126129
[L_front_hand01_02]
10 71.020905 -0.000179 0.000030 0.000316 -0.002326 -105.466431 71.020905
11 71.020905 -0.000179 0.000030 0.000315 -0.002326 -105.442802 71.020905
[L_front_hand02_02]
10 71.020927 -0.000119 0.000060 0.000316 -0.002326 -105.466431 71.020927
11 71.020927 -0.000119 0.000060 0.000315 -0.002326 -105.442802 71.020927
[L_front_hand03_02]
10 71.020905 -0.000060 0.000060 0.000316 -0.002326 -105.466431 71.020905
11 71.020905 -0.000060 0.000060 0.000315 -0.002326 -105.442802 71.020905
[R_forearm]
10 322.776428 -0.000060 0.000030 0.201095 0.068205 -109.794945 322.776428
11 322.776428 -0.000060 0.000030 0.201088 0.068226 -109.807030 322.776428
[R_front_hand]
10 238.847015 -0.006795 2.210259 -2.635298 -10.645461 -26.312506 238.857239
11 238.847015 -0.006795 2.210259 -2.635298 -10.645461 -26.312506 238.857239
[R_weapon_bone]
10 155.664093 0.002503 -0.000030 0.003487 0.001180 -90.988930 155.664078
11 155.664093 0.002503 -0.000030 0.003487 0.001180 -90.988930 155.664078
[R_front_hand01_01]
10 87.624611 14.231146 22.918642 -143.671631 -55.829556 48.823868 91.683487
11 87.624611 14.231146 22.918642 -141.947067 -54.924736 46.726738 91.683487
[R_front_hand02_01]
10 89.356956 14.367283 -19.491137 144.272369 54.223438 51.351048 92.579636
11 89.356956 14.367283 -19.491137 142.634140 53.329124 49.315857 92.579636
[R_front_hand03_01]
10 87.286232 -22.307278 -0.143439 0.102142 -0.441771 -67.781387 90.091743
11 87.286232 -22.307278 -0.143439 0.092230 -0.445770 -66.286453 90.091743
[R_front_hand01_02]
10 71.020905 0.000060 0.000119 0.002323 -0.000334 106.381714 71.020905
11 71.020905 0.000060 0.000119 0.002323 -0.000334 106.381714 71.020905
[R_front_hand02_02]
10 71.020844 -0.000030 -0.000119 0.002323 -0.000334 106.381714 71.020836
11 71.020844 -0.000030 -0.000119 0.002323 -0.000334 106.381714 71.020836
[R_front_hand03_02]
10 71.020905 0.000000 0.000030 0.002323 -0.000334 106.381714 71.020905
11 71.020905 0.000000 0.000030 0.002323 -0.000334 106.381714 71.020905
[null_rope01_connect]
10 328.732483 0.000000 -0.000238 -115.960258 -85.001038 -167.121918 328.732483
11 328.732483 0.000000 -0.000238 -124.921127 -83.993515 -157.880844 328.732483
[Rope1_Seg01]
10 -0.000011 0.000027 0.000046 -14.032948 12.261266 -90.388351 0.000054
11 -0.000013 0.000025 0.000051 -12.049198 13.650394 -96.801643 0.000058
[Rope1_Seg02]
10 139.999863 -0.000179 0.000000 5.655047 4.882704 -9.075042 139.999863
11 139.999863 -0.000179 0.000000 7.552399 4.408898 -8.321074 139.999863
[Rope1_Seg03]
10 139.999924 0.000060 -0.000060 22.978752 3.895576 -11.043326 139.999924
11 139.999924 0.000060 -0.000060 41.179951 3.152652 -10.773847 139.999924
[Rope1_Seg04]
10 139.999924 -0.000060 -0.000119 86.453873 -2.924048 -16.046124 139.999924
11 139.999924 -0.000060 -0.000119 82.026901 -8.458138 -14.077125 139.999924
[Rope1_Seg05]
10 139.999832 0.000119 -0.000060 5.761200 2.308583 -3.894866 139.999832
11 139.999832 0.000119 -0.000060 4.047380 4.564130 -6.085421 139.999832
[Rope1_Seg06]
10 139.999954 0.000119 -0.000060 -149.845810 13.540330 -8.908072 139.999954
11 139.999954 0.000119 -0.000060 -172.631210 14.461615 -13.869971 139.999954
[Rope1_Seg07]
10 139.999985 0.000060 0.000000 -9.232491 -2.909848 7.035513 139.999985
11 139.999985 0.000060 0.000000 -2.939251 -4.853484 6.894283 139.999985
[Rope1_Seg09]
10 121.602913 0.000119 -0.000089 -89.793175 -1.359789 0.847147 121.602913
11 121.602913 0.000119 -0.000089 -89.793175 -1.359789 0.847147 121.602913
[L_mid_hand01]
10 103.859421 1.038730 8.195221 109.301483 -41.408253 -13.576799 104.187431
11 103.859421 1.038730 8.195221 110.016693 -43.583393 -14.630751 104.187431
[L_mid_hand02]
10 105.572853 -4.139662 -10.864139 -147.153671 31.943630 -38.737034 106.211075
11 105.572853 -4.139662 -10.864139 -148.402451 33.171711 -41.059566 106.211075
[L_mid_hand03]
10 104.641464 17.579376 -3.913581 -14.087292 12.528420 44.741467 106.179977
11 104.641464 17.579376 -3.913581 -13.575850 13.082139 47.042397 106.179977
[null_rope02_connect]
10 328.732849 0.000179 -0.000119 -137.428833 83.684288 -27.609795 328.732849
11 328.732849 0.000179 -0.000119 -139.511169 83.060143 -29.841780 328.732849
[Rope2_Seg01]
10 0.000050 0.000107 0.000000 82.652573 -5.810199 -84.925880 0.000118
11 0.000051 0.000102 0.000000 75.447411 -6.974421 -75.785210 0.000114
[Rope2_Seg02]
10 139.999741 -0.000060 -0.000119 3.327128 5.947128 -6.358941 139.999756
11 139.999741 -0.000060 -0.000119 7.327516 3.500356 -7.768135 139.999756
[Rope2_Seg03]
10 140.000107 0.000030 0.000000 6.297508 6.310843 -7.693683 140.000107
11 140.000107 0.000030 0.000000 12.040117 2.778024 -9.227610 140.000107
[Rope2_Seg04]
10 139.999802 0.000000 -0.000060 21.548952 9.572378 -13.305103 139.999802
11 139.999802 0.000000 -0.000060 29.052511 2.062975 -15.700631 139.999802
[Rope2_Seg05]
10 139.999985 -0.000060 0.000119 26.475353 1.435175 -8.806120 139.999985
11 139.999985 -0.000060 0.000119 13.736878 -3.172291 -5.909181 139.999985
[Rope2_Seg06]
10 139.999893 -0.000030 -0.000119 -19.424707 -0.516854 8.124973 139.999893
11 139.999893 -0.000030 -0.000119 -16.666590 3.345833 8.140553 139.999893
[Rope2_Seg07]
10 139.999893 0.000060 -0.000060 -14.968877 -3.602525 10.288665 139.999893
11 139.999893 0.000060 -0.000060 -12.259156 0.836054 7.572971 139.999893
[Rope2_Seg09]
10 121.338966 0.000089 -0.000060 33.793236 -1.359788 -0.847141 121.338966
11 121.338966 0.000089 -0.000060 33.793236 -1.359788 -0.847141 121.338966
[R_mid_hand01]
10 104.680779 11.144459 -10.335981 -34.826851 34.540035 41.908733 105.778534
11 104.680779 11.144459 -10.335981 -36.116535 33.174706 39.598408 105.778534
[R_mid_hand02]
10 104.070427 2.443552 8.231699 68.824310 -46.622631 16.260359 104.424065
11 104.070427 2.443552 8.231699 69.680679 -44.419243 15.065832 104.424065
[R_mid_hand03]
10 106.028137 -11.221827 -5.996406 -170.883774 12.973572 -51.735531 106.788818
11 106.028137 -11.221827 -5.996406 -170.354065 12.593579 -49.350628 106.788818
[spine02]
10 129.756927 0.001550 0.000119 0.530894 -4.024815 -15.394449 129.756927
11 129.756927 0.001550 0.000119 0.531597 -4.024723 -15.414445 129.756927
[spine03]
10 78.614014 0.081589 -4.899007 1.999386 3.782245 18.017288 78.766556
11 78.614006 0.081584 -4.899006 1.998935 3.777185 18.027176 78.766541
[pelvis]
10 169.435242 0.051022 0.000000 -0.070247 -0.177769 17.213148 169.435257
11 169.435242 0.051022 0.000000 -0.070285 -0.177754 17.238155 169.435257
[null_rope03_connect]
10 -1.257226 -2.466202 137.391083 -19.591713 -81.142349 60.796143 137.418976
11 -1.257226 -2.466202 137.391083 -20.060368 -81.450447 61.728394 137.418976
[null_rope04_connect]
10 -1.259640 -2.480268 -137.844437 -19.591713 -81.142349 60.796143 137.872513
11 -1.259640 -2.480268 -137.844437 -20.060368 -81.450447 61.728394 137.872513
[Rope3_Seg01]
10 0.000010 0.000038 -0.000114 -133.137756 18.745516 -83.569580 0.000121
11 0.000010 0.000038 -0.000114 -132.952225 20.056799 -82.162735 0.000121
[Rope3_Seg02]
10 139.999924 -0.000119 0.000060 0.239046 1.483857 0.761515 139.999924
11 139.999924 -0.000119 0.000060 0.354158 2.505157 1.414355 139.999924
[Rope3_Seg03]
10 139.999924 -0.000119 0.000119 0.280749 1.641686 0.836649 139.999924
11 139.999924 -0.000119 0.000119 0.454469 2.765675 1.541347 139.999924
[Rope3_Seg04]
10 139.999924 0.000119 0.000000 0.054181 2.573343 4.099811 139.999924
11 139.999924 0.000119 0.000000 0.480567 4.604199 5.621347 139.999924
[Rope3_Seg05]
10 139.999924 -0.000238 0.000060 0.646932 1.987635 0.413547 139.999924
11 139.999924 -0.000238 0.000060 1.068626 3.060537 0.861421 139.999924
[Rope3_Seg06]
10 139.999893 -0.000119 -0.000060 1.833428 -0.858850 -10.448685 139.999893
11 139.999893 -0.000119 -0.000060 2.125512 -2.509403 -11.776633 139.999893
[Rope3_Seg07]
10 139.999771 0.000060 -0.000119 1.046409 -1.138321 -8.776889 139.999771
11 139.999771 0.000060 -0.000119 1.205527 -2.635520 -9.788939 139.999771
[Rope3_Seg08]
10 139.999985 -0.000060 0.000000 0.578912 -0.450451 -4.561836 139.999985
11 139.999985 -0.000060 0.000000 0.622292 -1.085584 -4.892344 139.999985
[Rope3_Seg09]
10 90.185997 -0.000179 -0.000060 89.793228 -1.359877 -0.847183 90.185997
11 90.185997 -0.000179 -0.000060 89.793228 -1.359877 -0.847183 90.185997
[R_rear_hand01]
10 103.366196 -6.073594 -10.757982 -165.718872 20.328495 -43.170486 104.101845
11 103.366196 -6.073594 -10.757982 -165.009155 19.819437 -41.100956 104.101845
[R_rear_hand02]
10 100.509819 12.039542 -7.992327 -29.668055 26.160351 40.761948 101.543350
11 100.509819 12.039542 -7.992327 -30.502344 25.155792 38.836960 101.543350
[R_rear_hand03]
10 101.539970 5.215704 5.435467 82.115250 -43.756126 9.334551 101.819031
11 101.539970 5.215704 5.435467 82.364601 -41.773376 8.967985 101.819031
[Rope4_Seg01]
10 0.000010 0.000038 -0.000114 49.438332 4.282727 -80.775146 0.000121
11 0.000010 0.000038 -0.000114 49.681351 5.193096 -91.622047 0.000121
[Rope4_Seg02]
10 139.999985 0.000060 0.000119 2.778733 -0.131203 -8.414270 139.999985
11 139.999985 0.000060 0.000119 1.232179 2.998645 -5.593845 139.999985
[Rope4_Seg03]
10 139.999924 0.000000 -0.000238 2.349936 -0.457423 -9.049887 139.999924
11 139.999924 0.000000 -0.000238 1.337023 3.083022 -5.971756 139.999924
[Rope4_Seg04]
10 139.999985 0.000000 0.000119 2.582524 0.784944 -14.963398 139.999985
11 139.999985 0.000000 0.000119 2.204773 5.806381 -10.565667 139.999985
[Rope4_Seg05]
10 139.999802 -0.000060 -0.000119 0.346282 -2.131378 -3.096761 139.999802
11 139.999802 -0.000060 -0.000119 0.162408 -0.472282 -0.602390 139.999802
[Rope4_Seg06]
10 139.999924 0.000000 0.000060 -1.377668 -4.668278 11.466962 139.999924
11 139.999924 0.000000 0.000060 -2.889671 -6.549543 10.423437 139.999924
[Rope4_Seg07]
10 139.999802 0.000000 0.000000 -0.941733 -3.727777 8.541598 139.999802
11 139.999802 0.000000 0.000000 -1.447229 -4.637329 6.632693 139.999802
[Rope4_Seg08]
10 139.999924 0.000000 0.000119 -1.880610 -2.123305 3.816859 139.999924
11 139.999924 0.000000 0.000119 -2.074501 -2.415270 3.172663 139.999924
[Rope4_Seg09]
10 90.185791 0.000060 0.000060 -135.617828 2.228885 0.850567 90.185791
11 90.185791 0.000060 0.000060 -135.617828 2.228885 0.850567 90.185791
[L_rear_hand01]
10 101.696655 -8.392275 -7.654577 -29.575453 -26.270130 139.027267 102.329041
11 101.696655 -8.392275 -7.654577 -28.015862 -27.942142 135.607529 102.329041
[L_rear_hand02]
10 102.726799 -1.568258 5.773216 82.088585 43.973633 170.624878 102.900848
11 102.726799 -1.568258 5.773216 81.577332 47.415264 169.913025 102.900848
[L_rear_hand03]
10 104.552910 9.721220 -10.420293 -165.800003 -20.376877 -136.601624 105.519653
11 104.552910 9.721220 -10.420293 -167.078079 -21.194330 -132.993347 105.519653
